<?xml version="1.0" encoding="utf-8"?>
<svg version="1.1" xmlns:xlink="http://www.w3.org/1999/xlink" width="57px" height="57px" xmlns="http://www.w3.org/2000/svg">
  <g transform="matrix(1 0 0 1 -52 -234 )">
    <path d="M 80.5 234  C 96.46 234  109 246.54  109 262.5  C 109 278.46  96.46 291  80.5 291  C 64.54 291  52 278.46  52 262.5  C 52 246.54  64.54 234  80.5 234  Z " fill-rule="nonzero" fill="#ffffff" stroke="none" />
    <path d="M 80.5 234.5  C 96.18 234.5  108.5 246.82  108.5 262.5  C 108.5 278.18  96.18 290.5  80.5 290.5  C 64.82 290.5  52.5 278.18  52.5 262.5  C 52.5 246.82  64.82 234.5  80.5 234.5  Z " stroke-width="1" stroke="#797979" fill="none" />
  </g>
</svg>