<?xml version="1.0" encoding="utf-8"?>
<svg version="1.1" xmlns:xlink="http://www.w3.org/1999/xlink" width="53px" height="51px" xmlns="http://www.w3.org/2000/svg">
  <defs>
    <mask fill="white" id="clip12">
      <path d="M 0 51  L 0 0  L 26.5 0  L 29.8333333333348 0  L 53 0  L 53 51  L 0 51  Z " fill-rule="evenodd" />
    </mask>
  </defs>
  <g transform="matrix(1 0 0 1 -36 -1584 )">
    <path d="M 0 51  L 0 0  L 26.5 0  L 29.8333333333348 0  L 53 0  L 53 51  L 0 51  Z " fill-rule="nonzero" fill="#409eff" stroke="none" transform="matrix(1 0 0 1 36 1584 )" />
    <path d="M 0 51  L 0 0  L 26.5 0  L 29.8333333333348 0  L 53 0  L 53 51  L 0 51  Z " stroke-width="2" stroke="#797979" fill="none" transform="matrix(1 0 0 1 36 1584 )" mask="url(#clip12)" />
  </g>
</svg>