<?xml version="1.0" encoding="utf-8"?>
<svg version="1.1" xmlns:xlink="http://www.w3.org/1999/xlink" width="1999px" height="55px" xmlns="http://www.w3.org/2000/svg">
  <defs>
    <mask fill="white" id="clip54">
      <path d="M 0 30  L 0 15  C 0 6.60000000000002  6.60000000000002 0  15 0  L 198.861111111112 0  L 1974 0  C 1982.4 0  1989 6.60000000000002  1989 15  L 1989 30  C 1989 38.4  1982.4 45  1974 45  L 15 45  C 6.60000000000002 45  0 38.4  0 30  Z " fill-rule="evenodd" />
    </mask>
    <filter x="431px" y="727px" width="1999px" height="55px" filterUnits="userSpaceOnUse" id="filter55">
      <feOffset dx="5" dy="5" in="SourceAlpha" result="shadowOffsetInner" />
      <feGaussianBlur stdDeviation="2.5" in="shadowOffsetInner" result="shadowGaussian" />
      <feComposite in2="shadowGaussian" operator="atop" in="SourceAlpha" result="shadowComposite" />
      <feColorMatrix type="matrix" values="0 0 0 0 0.666666666666667  0 0 0 0 0.666666666666667  0 0 0 0 0.666666666666667  0 0 0 0.349019607843137 0  " in="shadowComposite" />
    </filter>
    <g id="widget56">
      <path d="M 0 30  L 0 15  C 0 6.60000000000002  6.60000000000002 0  15 0  L 198.861111111112 0  L 1974 0  C 1982.4 0  1989 6.60000000000002  1989 15  L 1989 30  C 1989 38.4  1982.4 45  1974 45  L 15 45  C 6.60000000000002 45  0 38.4  0 30  Z " fill-rule="nonzero" fill="#ffffff" stroke="none" transform="matrix(1 0 0 1 431 727 )" />
      <path d="M 0 30  L 0 15  C 0 6.60000000000002  6.60000000000002 0  15 0  L 198.861111111112 0  L 1974 0  C 1982.4 0  1989 6.60000000000002  1989 15  L 1989 30  C 1989 38.4  1982.4 45  1974 45  L 15 45  C 6.60000000000002 45  0 38.4  0 30  Z " stroke-width="2" stroke="#aaaaaa" fill="none" transform="matrix(1 0 0 1 431 727 )" mask="url(#clip54)" />
    </g>
  </defs>
  <g transform="matrix(1 0 0 1 -431 -727 )">
    <use xlink:href="#widget56" filter="url(#filter55)" />
    <use xlink:href="#widget56" />
  </g>
</svg>