<?xml version="1.0" encoding="utf-8"?>
<svg version="1.1" xmlns:xlink="http://www.w3.org/1999/xlink" width="47px" height="49px" xmlns="http://www.w3.org/2000/svg">
  <g transform="matrix(1 0 0 1 -2217 -387 )">
    <path d="M 2240.5 387  C 2253.66 387  2264 397.78  2264 411.5  C 2264 425.22  2253.66 436  2240.5 436  C 2227.34 436  2217 425.22  2217 411.5  C 2217 397.78  2227.34 387  2240.5 387  Z " fill-rule="nonzero" fill="#ffffff" stroke="none" />
    <path d="M 2240.5 387.5  C 2253.38 387.5  2263.5 398.06  2263.5 411.5  C 2263.5 424.94  2253.38 435.5  2240.5 435.5  C 2227.62 435.5  2217.5 424.94  2217.5 411.5  C 2217.5 398.06  2227.62 387.5  2240.5 387.5  Z " stroke-width="1" stroke="#797979" fill="none" />
  </g>
</svg>