<?xml version="1.0" encoding="utf-8"?>
<svg version="1.1" xmlns:xlink="http://www.w3.org/1999/xlink" width="12px" height="12px" viewBox="579 146  12 12" xmlns="http://www.w3.org/2000/svg">
  <path d="M 585 146  C 588.36 146  591 148.64  591 152  C 591 155.36  588.36 158  585 158  C 581.64 158  579 155.36  579 152  C 579 148.64  581.64 146  585 146  Z " fill-rule="nonzero" fill="#ffffff" stroke="none" />
  <path d="M 585 146.5  C 588.08 146.5  590.5 148.92  590.5 152  C 590.5 155.08  588.08 157.5  585 157.5  C 581.92 157.5  579.5 155.08  579.5 152  C 579.5 148.92  581.92 146.5  585 146.5  Z " stroke-width="1" stroke="#797979" fill="none" />
  <path d="M 585 155  C 583.32 155  582 153.68  582 152  C 582 150.32  583.32 149  585 149  C 586.68 149  588 150.32  588 152  C 588 153.68  586.68 155  585 155  " fill-rule="nonzero" fill="#797979" stroke="none" />
</svg>