<?xml version="1.0" encoding="utf-8"?>
<svg version="1.1" xmlns:xlink="http://www.w3.org/1999/xlink" width="12px" height="12px" viewBox="2141 868  12 12" xmlns="http://www.w3.org/2000/svg">
  <path d="M 2147 868  C 2150.36 868  2153 870.64  2153 874  C 2153 877.36  2150.36 880  2147 880  C 2143.64 880  2141 877.36  2141 874  C 2141 870.64  2143.64 868  2147 868  Z " fill-rule="nonzero" fill="#ffffff" stroke="none" />
  <path d="M 2147 868.5  C 2150.08 868.5  2152.5 870.92  2152.5 874  C 2152.5 877.08  2150.08 879.5  2147 879.5  C 2143.92 879.5  2141.5 877.08  2141.5 874  C 2141.5 870.92  2143.92 868.5  2147 868.5  Z " stroke-width="1" stroke="#797979" fill="none" />
  <path d="M 2147 877  C 2145.32 877  2144 875.68  2144 874  C 2144 872.32  2145.32 871  2147 871  C 2148.68 871  2150 872.32  2150 874  C 2150 875.68  2148.68 877  2147 877  " fill-rule="nonzero" fill="#797979" stroke="none" />
</svg>