<?xml version="1.0" encoding="utf-8"?>
<svg version="1.1" xmlns:xlink="http://www.w3.org/1999/xlink" width="80px" height="41px" xmlns="http://www.w3.org/2000/svg">
  <defs>
    <mask fill="white" id="clip11">
      <path d="M 0 34  L 0 7  C 0 3.08000000000004  3.08000000000001 0  7 0  L 29.2222222222222 0  L 73 0  C 76.92 0  80 3.08000000000004  80 7  L 80 34  C 80 37.92  76.92 41  73 41  L 7 41  C 3.08000000000001 41  0 37.92  0 34  Z " fill-rule="evenodd" />
    </mask>
  </defs>
  <g transform="matrix(1 0 0 1 -171 -554 )">
    <path d="M 0 34  L 0 7  C 0 3.08000000000004  3.08000000000001 0  7 0  L 29.2222222222222 0  L 73 0  C 76.92 0  80 3.08000000000004  80 7  L 80 34  C 80 37.92  76.92 41  73 41  L 7 41  C 3.08000000000001 41  0 37.92  0 34  Z " fill-rule="nonzero" fill="#ec808d" stroke="none" fill-opacity="0.835294117647059" transform="matrix(1 0 0 1 171 554 )" />
    <path d="M 0 34  L 0 7  C 0 3.08000000000004  3.08000000000001 0  7 0  L 29.2222222222222 0  L 73 0  C 76.92 0  80 3.08000000000004  80 7  L 80 34  C 80 37.92  76.92 41  73 41  L 7 41  C 3.08000000000001 41  0 37.92  0 34  Z " stroke-width="2" stroke="#797979" fill="none" transform="matrix(1 0 0 1 171 554 )" mask="url(#clip11)" />
  </g>
</svg>